STARTFONT 2.1
FONT -MIT-STEMPL KST-Medium-R-Normal--28-10-200-200-P-28-ISO8859-1
SIZE 10 200 200
FONTBOUNDINGBOX 28 28 -10 0
STARTPROPERTIES 17
ADD_STYLE_NAME ""
AVERAGE_WIDTH 28
CHARSET_ENCODING "1"
CHARSET_REGISTRY "ISO8859"
DEFAULT_CHAR 0
FAMILY "STEMPL KST"
FONT_ASCENT 28
FONT_DESCENT 0
FOUNDRY "MIT"
PIXEL_SIZE 28
POINT_SIZE 10
RESOLUTION_X 200
RESOLUTION_Y 200
SETWIDTH_NAME "Normal"
SLANT "R"
SPACING "P"
WEIGHT_NAME "Medium"
ENDPROPERTIES
CHARS 27
STARTCHAR char32
ENCODING 32
SWIDTH 2800 0
DWIDTH 28 0
BBX 1 28 0 0
BITMAP
00
00
00
00
00
00
00
00
00
00
00
00
00
00
00
00
00
00
00
00
00
00
00
00
00
00
00
00
ENDCHAR
STARTCHAR char65
ENCODING 65
SWIDTH 2800 0
DWIDTH 28 0
BBX 8 28 10 0
BITMAP
00
00
00
00
00
00
00
00
00
00
FF
FF
FF
FF
FF
FF
FF
FF
00
00
00
00
00
00
00
00
00
00
ENDCHAR
STARTCHAR char66
ENCODING 66
SWIDTH 2800 0
DWIDTH 28 0
BBX 8 28 10 0
BITMAP
18
18
18
18
18
18
18
18
18
18
FF
FF
FF
FF
FF
FF
FF
FF
00
00
00
00
00
00
00
00
00
00
ENDCHAR
STARTCHAR char67
ENCODING 67
SWIDTH 2800 0
DWIDTH 28 0
BBX 18 28 10 0
BITMAP
000000
000000
000000
000000
000000
000000
000000
000000
000000
000000
FF0000
FF0000
FF0000
FFFFC0
FFFFC0
FF0000
FF0000
FF0000
000000
000000
000000
000000
000000
000000
000000
000000
000000
000000
ENDCHAR
STARTCHAR char68
ENCODING 68
SWIDTH 2800 0
DWIDTH 28 0
BBX 8 28 10 0
BITMAP
00
00
00
00
00
00
00
00
00
00
FF
FF
FF
FF
FF
FF
FF
FF
18
18
18
18
18
18
18
18
18
18
ENDCHAR
STARTCHAR char69
ENCODING 69
SWIDTH 2800 0
DWIDTH 28 0
BBX 18 28 0 0
BITMAP
000000
000000
000000
000000
000000
000000
000000
000000
000000
000000
003FC0
003FC0
003FC0
FFFFC0
FFFFC0
003FC0
003FC0
003FC0
000000
000000
000000
000000
000000
000000
000000
000000
000000
000000
ENDCHAR
STARTCHAR char70
ENCODING 70
SWIDTH 2800 0
DWIDTH 28 0
BBX 18 28 10 0
BITMAP
000000
000000
000000
000000
000000
000000
000000
000000
000000
000000
FF0000
FF0000
FF0000
FFFFC0
FFFFC0
FF0000
FF0000
FF0000
180000
180000
180000
180000
180000
180000
180000
180000
180000
180000
ENDCHAR
STARTCHAR char71
ENCODING 71
SWIDTH 2800 0
DWIDTH 28 0
BBX 8 28 10 0
BITMAP
18
18
18
18
18
18
18
18
18
18
FF
FF
FF
FF
FF
FF
FF
FF
18
18
18
18
18
18
18
18
18
18
ENDCHAR
STARTCHAR char72
ENCODING 72
SWIDTH 2800 0
DWIDTH 28 0
BBX 18 28 0 0
BITMAP
000000
000000
000000
000000
000000
000000
000000
000000
000000
000000
003FC0
003FC0
003FC0
FFFFC0
FFFFC0
003FC0
003FC0
003FC0
000600
000600
000600
000600
000600
000600
000600
000600
000600
000600
ENDCHAR
STARTCHAR char73
ENCODING 73
SWIDTH 2800 0
DWIDTH 28 0
BBX 18 28 10 0
BITMAP
180000
180000
180000
180000
180000
180000
180000
180000
180000
180000
FF0000
FF0000
FF0000
FFFFC0
FFFFC0
FF0000
FF0000
FF0000
000000
000000
000000
000000
000000
000000
000000
000000
000000
000000
ENDCHAR
STARTCHAR char74
ENCODING 74
SWIDTH 2800 0
DWIDTH 28 0
BBX 28 28 0 0
BITMAP
00000000
00000000
00000000
00000000
00000000
00000000
00000000
00000000
00000000
00000000
003FC000
003FC000
003FC000
FFFFFFF0
FFFFFFF0
003FC000
003FC000
003FC000
00000000
00000000
00000000
00000000
00000000
00000000
00000000
00000000
00000000
00000000
ENDCHAR
STARTCHAR char75
ENCODING 75
SWIDTH 2800 0
DWIDTH 28 0
BBX 18 28 0 0
BITMAP
000600
000600
000600
000600
000600
000600
000600
000600
000600
000600
003FC0
003FC0
003FC0
FFFFC0
FFFFC0
003FC0
003FC0
003FC0
000000
000000
000000
000000
000000
000000
000000
000000
000000
000000
ENDCHAR
STARTCHAR char76
ENCODING 76
SWIDTH 2800 0
DWIDTH 28 0
BBX 28 28 0 0
BITMAP
00060000
00030000
00018000
0000C000
00006000
00003000
00001800
00000C00
00000600
00000300
003FC180
003FC0C0
003FC060
803FC030
C03FC010
603FC000
303FC000
181FE000
0C000000
06000000
03000000
01800000
00C00000
00600000
00300000
00180000
000C0000
00060000
ENDCHAR
STARTCHAR char77
ENCODING 77
SWIDTH 2800 0
DWIDTH 28 0
BBX 28 28 0 0
BITMAP
00060000
000C0000
00180000
00300000
00600000
00C00000
01800000
03000000
06000000
0C000000
183FC000
303FC000
603FC000
C03FC010
803FC030
003FC060
003FC0C0
003FC180
00000300
00000600
00000C00
00001800
00003000
00006000
0000C000
00018000
00030000
00060000
ENDCHAR
STARTCHAR char78
ENCODING 78
SWIDTH 2800 0
DWIDTH 28 0
BBX 28 28 0 0
BITMAP
00060000
00060000
00060000
00060000
00060000
00060000
00060000
00060000
00060000
00060000
003FC000
003FC000
003FC000
FFFFFFF0
FFFFFFF0
003FC000
003FC000
003FC000
00060000
00060000
00060000
00060000
00060000
00060000
00060000
00060000
00060000
00060000
ENDCHAR
STARTCHAR char79
ENCODING 79
SWIDTH 2800 0
DWIDTH 28 0
BBX 18 28 0 0
BITMAP
000600
000C00
001800
003000
006000
00C000
018000
030000
060000
0C0000
183FC0
303FC0
603FC0
C03FC0
803FC0
003FC0
003FC0
003FC0
000000
000000
000000
000000
000000
000000
000000
000000
000000
000000
ENDCHAR
STARTCHAR char80
ENCODING 80
SWIDTH 2800 0
DWIDTH 28 0
BBX 18 28 10 0
BITMAP
000000
000000
000000
000000
000000
000000
000000
000000
000000
000000
FF0000
FF0000
FF0000
FF0040
FF00C0
FF0180
FF0300
FF0600
000C00
001800
003000
006000
00C000
018000
030000
060000
0C0000
180000
ENDCHAR
STARTCHAR char81
ENCODING 81
SWIDTH 2800 0
DWIDTH 28 0
BBX 18 28 10 0
BITMAP
180000
0C0000
060000
030000
018000
00C000
006000
003000
001800
000C00
FF0600
FF0300
FF0180
FF00C0
FF0040
FF0000
FF0000
FF0000
000000
000000
000000
000000
000000
000000
000000
000000
000000
000000
ENDCHAR
STARTCHAR char82
ENCODING 82
SWIDTH 2800 0
DWIDTH 28 0
BBX 18 28 0 0
BITMAP
000000
000000
000000
000000
000000
000000
000000
000000
000000
000000
003FC0
003FC0
003FC0
803FC0
C03FC0
603FC0
303FC0
183FC0
0C0000
060000
030000
018000
00C000
006000
003000
001800
000C00
000600
ENDCHAR
STARTCHAR char83
ENCODING 83
SWIDTH 2800 0
DWIDTH 28 0
BBX 28 28 0 0
BITMAP
00000000
00000000
00000000
00000000
00000000
00000000
00000000
00000000
00000000
00000000
003FC000
003FC000
003FC000
FFFFFFF0
FFFFFFF0
003FC000
003FC000
003FC000
00000000
00000000
00000000
00000000
00000000
00000000
00000000
00000000
00000000
00000000
ENDCHAR
STARTCHAR char84
ENCODING 84
SWIDTH 2800 0
DWIDTH 28 0
BBX 8 28 10 0
BITMAP
18
18
18
18
18
18
18
18
18
18
FF
FF
FF
FF
FF
FF
FF
FF
18
18
18
18
18
18
18
18
18
18
ENDCHAR
STARTCHAR char85
ENCODING 85
SWIDTH 2800 0
DWIDTH 28 0
BBX 28 28 0 0
BITMAP
00060000
000F0000
001F8000
003FC000
007FE000
00FFF000
01FFF800
03FFFC00
07FFFE00
0FFFFF00
1FFFFF80
3FFFFFC0
7FFFFFE0
FFFFFFF0
FFFFFFF0
7FFFFFE0
3FFFFFC0
1FFFFF80
0FFFFF00
07FFFE00
03FFFC00
01FFF800
00FFF000
007FE000
003FC000
001F8000
000F0000
00060000
ENDCHAR
STARTCHAR char86
ENCODING 86
SWIDTH 2800 0
DWIDTH 28 0
BBX 18 28 0 0
BITMAP
000600
000600
000600
000600
000600
000600
000600
000600
000600
000600
003FC0
003FC0
003FC0
FFFFC0
FFFFC0
003FC0
003FC0
003FC0
000600
000600
000600
000600
000600
000600
000600
000600
000600
000600
ENDCHAR
STARTCHAR char87
ENCODING 87
SWIDTH 2800 0
DWIDTH 28 0
BBX 28 28 0 0
BITMAP
00000000
00000000
00000000
00000000
00000000
00000000
00000000
00000000
00000000
00000000
003FC000
003FC000
003FC000
FFFFFFF0
FFFFFFF0
003FC000
003FC000
003FC000
00060000
00060000
00060000
00060000
00060000
00060000
00060000
00060000
00060000
00060000
ENDCHAR
STARTCHAR char88
ENCODING 88
SWIDTH 2800 0
DWIDTH 28 0
BBX 28 28 0 0
BITMAP
C0000030
60000060
300000C0
18000180
0C000300
06000600
03000C00
01801800
00C03000
00606000
0030C000
00198000
000F0000
00060000
000F0000
00198000
0030C000
00606000
00C03000
01801800
03000C00
06000600
0C000300
18000180
300000C0
60000060
C0000030
80000010
ENDCHAR
STARTCHAR char89
ENCODING 89
SWIDTH 2800 0
DWIDTH 28 0
BBX 28 28 0 0
BITMAP
00060000
00060000
00060000
00060000
00060000
00060000
00060000
00060000
00060000
00060000
003FC000
003FC000
003FC000
FFFFFFF0
FFFFFFF0
003FC000
003FC000
003FC000
00000000
00000000
00000000
00000000
00000000
00000000
00000000
00000000
00000000
00000000
ENDCHAR
STARTCHAR char90
ENCODING 90
SWIDTH 2800 0
DWIDTH 28 0
BBX 18 28 10 0
BITMAP
180000
180000
180000
180000
180000
180000
180000
180000
180000
180000
FF0000
FF0000
FF0000
FFFFC0
FFFFC0
FF0000
FF0000
FF0000
180000
180000
180000
180000
180000
180000
180000
180000
180000
180000
ENDCHAR
ENDFONT
